TITLE ""
FILE "1Q_t_0320-0328.mp3" MP3
  TRACK 01 AUDIO
    TITLE "1Q_t_0320-0328_01"
    INDEX 01 00:00:00
  TRACK 02 AUDIO
    TITLE "1Q_t_0320-0328_02"
    INDEX 01 00:01:02
  TRACK 03 AUDIO
    TITLE "1Q_t_0320-0328_03"
    INDEX 01 00:01:18
  TRACK 04 AUDIO
    TITLE "1Q_t_0320-0328_04"
    INDEX 01 00:04:41
  TRACK 05 AUDIO
    TITLE "1Q_t_0320-0328_05"
    INDEX 01 00:04:57
  TRACK 06 AUDIO
    TITLE "1Q_t_0320-0328_06"
    INDEX 01 00:09:66
  TRACK 07 AUDIO
    TITLE "1Q_t_0320-0328_07"
    INDEX 01 00:10:46
  TRACK 08 AUDIO
    TITLE "1Q_t_0320-0328_08"
    INDEX 01 00:11:49
  TRACK 09 AUDIO
    TITLE "1Q_t_0320-0328_09"
    INDEX 01 00:11:65
  TRACK 10 AUDIO
    TITLE "1Q_t_0320-0328_10"
    INDEX 01 00:13:40
  TRACK 11 AUDIO
    TITLE "1Q_t_0320-0328_11"
    INDEX 01 00:13:54
  TRACK 12 AUDIO
    TITLE "1Q_t_0320-0328_12"
    INDEX 01 00:18:67
  TRACK 13 AUDIO
    TITLE "1Q_t_0320-0328_13"
    INDEX 01 00:19:43
  TRACK 14 AUDIO
    TITLE "1Q_t_0320-0328_14"
    INDEX 01 00:20:52
  TRACK 15 AUDIO
    TITLE "1Q_t_0320-0328_15"
    INDEX 01 00:20:66
  TRACK 16 AUDIO
    TITLE "1Q_t_0320-0328_16"
    INDEX 01 00:22:61
  TRACK 17 AUDIO
    TITLE "1Q_t_0320-0328_17"
    INDEX 01 00:22:75
  TRACK 18 AUDIO
    TITLE "1Q_t_0320-0328_18"
    INDEX 01 00:26:10
  TRACK 19 AUDIO
    TITLE "1Q_t_0320-0328_19"
    INDEX 01 00:26:63
  TRACK 20 AUDIO
    TITLE "1Q_t_0320-0328_20"
    INDEX 01 00:27:68
  TRACK 21 AUDIO
    TITLE "1Q_t_0320-0328_21"
    INDEX 01 00:28:44
  TRACK 22 AUDIO
    TITLE "1Q_t_0320-0328_22"
    INDEX 01 00:29:71
  TRACK 23 AUDIO
    TITLE "1Q_t_0320-0328_23"
    INDEX 01 00:30:09
  TRACK 24 AUDIO
    TITLE "1Q_t_0320-0328_24"
    INDEX 01 00:31:66
  TRACK 25 AUDIO
    TITLE "1Q_t_0320-0328_25"
    INDEX 01 00:32:06
  TRACK 26 AUDIO
    TITLE "1Q_t_0320-0328_26"
    INDEX 01 00:36:75
  TRACK 27 AUDIO
    TITLE "1Q_t_0320-0328_27"
    INDEX 01 00:37:53
  TRACK 28 AUDIO
    TITLE "1Q_t_0320-0328_28"
    INDEX 01 00:38:70
  TRACK 29 AUDIO
    TITLE "1Q_t_0320-0328_29"
    INDEX 01 00:39:10
  TRACK 30 AUDIO
    TITLE "1Q_t_0320-0328_30"
    INDEX 01 00:41:35
  TRACK 31 AUDIO
    TITLE "1Q_t_0320-0328_31"
    INDEX 01 00:41:48
  TRACK 32 AUDIO
    TITLE "1Q_t_0320-0328_32"
    INDEX 01 00:47:22
  TRACK 33 AUDIO
    TITLE "1Q_t_0320-0328_33"
    INDEX 01 00:47:75
  TRACK 34 AUDIO
    TITLE "1Q_t_0320-0328_34"
    INDEX 01 00:49:24
  TRACK 35 AUDIO
    TITLE "1Q_t_0320-0328_35"
    INDEX 01 00:49:40
  TRACK 36 AUDIO
    TITLE "1Q_t_0320-0328_36"
    INDEX 01 00:51:66
  TRACK 37 AUDIO
    TITLE "1Q_t_0320-0328_37"
    INDEX 01 00:52:07
  TRACK 38 AUDIO
    TITLE "1Q_t_0320-0328_38"
    INDEX 01 00:58:27
  TRACK 39 AUDIO
    TITLE "1Q_t_0320-0328_39"
    INDEX 01 00:59:09
  TRACK 40 AUDIO
    TITLE "1Q_t_0320-0328_40"
    INDEX 01 01:00:30
  TRACK 41 AUDIO
    TITLE "1Q_t_0320-0328_41"
    INDEX 01 01:00:46
  TRACK 42 AUDIO
    TITLE "1Q_t_0320-0328_42"
    INDEX 01 01:01:57
  TRACK 43 AUDIO
    TITLE "1Q_t_0320-0328_43"
    INDEX 01 01:01:71
  TRACK 44 AUDIO
    TITLE "1Q_t_0320-0328_44"
    INDEX 01 01:07:16
  TRACK 45 AUDIO
    TITLE "1Q_t_0320-0328_45"
    INDEX 01 01:07:69
  TRACK 46 AUDIO
    TITLE "1Q_t_0320-0328_46"
    INDEX 01 01:08:75
  TRACK 47 AUDIO
    TITLE "1Q_t_0320-0328_47"
    INDEX 01 01:09:15
  TRACK 48 AUDIO
    TITLE "1Q_t_0320-0328_48"
    INDEX 01 01:10:21
  TRACK 49 AUDIO
    TITLE "1Q_t_0320-0328_49"
    INDEX 01 01:10:36
  TRACK 50 AUDIO
    TITLE "1Q_t_0320-0328_50"
    INDEX 01 01:15:06
  TRACK 51 AUDIO
    TITLE "1Q_t_0320-0328_51"
    INDEX 01 01:15:63
  TRACK 52 AUDIO
    TITLE "1Q_t_0320-0328_52"
    INDEX 01 01:17:33
  TRACK 53 AUDIO
    TITLE "1Q_t_0320-0328_53"
    INDEX 01 01:17:46
  TRACK 54 AUDIO
    TITLE "1Q_t_0320-0328_54"
    INDEX 01 01:19:10
  TRACK 55 AUDIO
    TITLE "1Q_t_0320-0328_55"
    INDEX 01 01:19:27
  TRACK 56 AUDIO
    TITLE "1Q_t_0320-0328_56"
    INDEX 01 01:23:72
